<svg xmlns="http://www.w3.org/2000/svg" xmlns:xlink="http://www.w3.org/1999/xlink" width="60" zoomAndPan="magnify" viewBox="0 0 45 49.499998" height="66" preserveAspectRatio="xMidYMid meet" version="1.0"><defs><clipPath id="497bf186f1"><path d="M 0.855469 0.00390625 L 43.921875 0.00390625 L 43.921875 49 L 0.855469 49 Z M 0.855469 0.00390625 " clip-rule="nonzero"/></clipPath></defs><g clip-path="url(#497bf186f1)"><path fill="#f16529" d="M 43.972656 0.40625 C 43.773438 0.1875 43.488281 0.0625 43.195312 0.0625 L 1.976562 0.0625 C 1.679688 0.0625 1.398438 0.1875 1.199219 0.40625 C 1 0.625 0.902344 0.917969 0.925781 1.210938 L 4.640625 42.804688 C 4.679688 43.238281 4.980469 43.605469 5.402344 43.722656 L 22.292969 48.546875 C 22.386719 48.574219 22.480469 48.589844 22.582031 48.589844 C 22.679688 48.589844 22.777344 48.574219 22.871094 48.546875 L 39.773438 43.722656 C 40.191406 43.605469 40.496094 43.238281 40.535156 42.804688 L 44.246094 1.210938 C 44.269531 0.917969 44.171875 0.625 43.972656 0.40625 Z M 35.082031 14.746094 L 15.238281 14.746094 L 15.710938 20.117188 L 34.605469 20.117188 L 33.1875 35.980469 L 22.578125 39.1875 L 22.476562 39.15625 L 11.988281 35.980469 L 11.414062 29.515625 L 16.550781 29.515625 L 16.777344 32.023438 L 22.636719 33.253906 L 28.394531 32.023438 L 29.007812 25.234375 L 11.03125 25.234375 L 9.636719 9.613281 L 35.542969 9.613281 Z M 35.082031 14.746094 " fill-opacity="1" fill-rule="nonzero"/></g></svg>