<svg xmlns="http://www.w3.org/2000/svg" xmlns:xlink="http://www.w3.org/1999/xlink" width="62" zoomAndPan="magnify" viewBox="0 0 46.5 46.5" height="62" preserveAspectRatio="xMidYMid meet" version="1.0"><defs><clipPath id="263a22171a"><path d="M 0.132812 0.0195312 L 46 0.0195312 L 46 46 L 0.132812 46 Z M 0.132812 0.0195312 " clip-rule="nonzero"/></clipPath></defs><g clip-path="url(#263a22171a)"><path fill="#f06292" d="M 22.957031 0.0195312 C 10.371094 0.0195312 0.132812 10.261719 0.132812 22.84375 C 0.132812 35.429688 10.371094 45.667969 22.957031 45.667969 C 35.539062 45.667969 45.78125 35.429688 45.78125 22.84375 C 45.78125 10.261719 35.539062 0.0195312 22.957031 0.0195312 Z M 28.5625 6.96875 C 32.355469 6.90625 35.480469 8.285156 36.136719 10.851562 C 37.070312 14.519531 33.886719 18.90625 29.808594 20.484375 C 26.167969 21.890625 23.160156 21.671875 21.921875 21.265625 C 20.515625 20.804688 19.691406 19.875 19.492188 19.351562 C 19.414062 19.144531 19.277344 18.804688 19.492188 18.683594 C 19.625 18.613281 19.675781 18.628906 20.027344 19.019531 C 20.363281 19.386719 21.714844 20.382812 24.277344 20.097656 C 31.007812 19.34375 35.0625 14.109375 33.78125 11.296875 C 32.882812 9.328125 27.695312 8.441406 21.214844 11.667969 C 13.304688 15.613281 12.875 18.863281 12.808594 20.097656 C 12.621094 23.492188 17 25.277344 19.363281 27.800781 C 19.421875 27.863281 19.472656 27.921875 19.527344 27.980469 C 20.246094 27.714844 21.234375 27.566406 22.8125 27.539062 C 26.640625 27.472656 28.804688 29.996094 28.714844 32.25 C 28.644531 34.027344 27.015625 34.761719 26.710938 34.8125 C 26.488281 34.851562 26.371094 34.855469 26.339844 34.683594 C 26.316406 34.566406 26.394531 34.507812 26.65625 34.347656 C 26.914062 34.1875 27.683594 33.660156 27.824219 32.699219 C 27.960938 31.734375 27.238281 29.433594 23.554688 29.003906 C 22.25 28.851562 21.222656 28.953125 20.339844 29.1875 C 20.980469 30.59375 21.101562 33.429688 19.632812 35.621094 C 18.109375 37.894531 15.273438 39.273438 12.511719 38.507812 C 11.621094 38.257812 10.273438 36.417969 11.433594 33.847656 C 12.535156 31.414062 17.242188 29.03125 17.882812 28.714844 L 17.882812 28.703125 C 15.703125 26.828125 10.402344 24.300781 9.652344 20.429688 C 9.441406 19.332031 9.953125 16.707031 13.179688 13.691406 C 15.890625 11.15625 19.664062 9.210938 23.144531 7.976562 C 24.976562 7.324219 26.835938 6.996094 28.5625 6.96875 Z M 18.789062 29.863281 C 18.722656 29.898438 18.660156 29.933594 18.597656 29.964844 L 18.597656 29.972656 C 18.597656 29.972656 16.410156 31.007812 14.886719 32.617188 C 13.472656 34.113281 13.078125 35.988281 13.867188 36.445312 C 14.597656 36.871094 16.300781 36.367188 17.523438 35.035156 C 17.921875 34.601562 18.25 34.128906 18.492188 33.621094 C 18.542969 33.519531 18.585938 33.417969 18.628906 33.316406 C 18.671875 33.210938 18.710938 33.109375 18.746094 33 C 19.058594 32.046875 19.09375 30.992188 18.789062 29.863281 Z M 18.789062 29.863281 " fill-opacity="1" fill-rule="nonzero"/></g></svg>