<svg xmlns="http://www.w3.org/2000/svg" xmlns:xlink="http://www.w3.org/1999/xlink" width="74" zoomAndPan="magnify" viewBox="0 0 55.5 55.499996" height="74" preserveAspectRatio="xMidYMid meet" version="1.0"><defs><clipPath id="0e36cce83f"><path d="M 0.222656 0.152344 L 54.484375 0.152344 L 54.484375 54.414062 L 0.222656 54.414062 Z M 0.222656 0.152344 " clip-rule="nonzero"/></clipPath></defs><g clip-path="url(#0e36cce83f)"><path fill="#f03c2e" d="M 53.460938 24.867188 L 29.769531 1.175781 C 29.441406 0.847656 29.066406 0.597656 28.636719 0.417969 C 28.207031 0.242188 27.761719 0.152344 27.300781 0.152344 C 26.835938 0.152344 26.390625 0.242188 25.960938 0.417969 C 25.535156 0.597656 25.15625 0.847656 24.828125 1.175781 L 19.910156 6.09375 L 26.152344 12.335938 C 27.601562 11.824219 29.265625 12.171875 30.421875 13.328125 C 30.984375 13.890625 31.351562 14.5625 31.53125 15.335938 C 31.707031 16.109375 31.667969 16.875 31.40625 17.625 L 37.421875 23.640625 C 38.875 23.136719 40.554688 23.460938 41.714844 24.625 C 41.910156 24.820312 42.082031 25.027344 42.234375 25.257812 C 42.386719 25.484375 42.515625 25.722656 42.617188 25.976562 C 42.722656 26.226562 42.800781 26.488281 42.855469 26.753906 C 42.910156 27.023438 42.933594 27.292969 42.933594 27.566406 C 42.933594 27.839844 42.910156 28.109375 42.855469 28.378906 C 42.800781 28.648438 42.722656 28.90625 42.617188 29.160156 C 42.515625 29.410156 42.386719 29.652344 42.234375 29.878906 C 42.082031 30.105469 41.910156 30.316406 41.71875 30.507812 C 41.523438 30.703125 41.3125 30.875 41.085938 31.027344 C 40.859375 31.179688 40.621094 31.304688 40.367188 31.410156 C 40.113281 31.515625 39.855469 31.59375 39.585938 31.648438 C 39.320312 31.699219 39.046875 31.726562 38.773438 31.726562 C 38.5 31.726562 38.230469 31.699219 37.964844 31.644531 C 37.695312 31.59375 37.433594 31.515625 37.183594 31.410156 C 36.929688 31.304688 36.691406 31.175781 36.464844 31.023438 C 36.238281 30.871094 36.027344 30.699219 35.835938 30.507812 C 34.613281 29.285156 34.3125 27.488281 34.929688 25.984375 L 29.320312 20.375 L 29.320312 35.136719 C 29.730469 35.339844 30.097656 35.601562 30.421875 35.921875 C 30.613281 36.117188 30.785156 36.324219 30.9375 36.550781 C 31.089844 36.78125 31.21875 37.019531 31.324219 37.273438 C 31.425781 37.523438 31.507812 37.785156 31.558594 38.050781 C 31.613281 38.320312 31.640625 38.589844 31.640625 38.863281 C 31.640625 39.136719 31.613281 39.40625 31.558594 39.675781 C 31.507812 39.941406 31.425781 40.203125 31.324219 40.453125 C 31.21875 40.707031 31.089844 40.945312 30.9375 41.171875 C 30.785156 41.398438 30.613281 41.609375 30.421875 41.804688 C 30.226562 41.996094 30.019531 42.167969 29.792969 42.320312 C 29.5625 42.472656 29.324219 42.601562 29.074219 42.703125 C 28.820312 42.808594 28.558594 42.886719 28.292969 42.941406 C 28.023438 42.996094 27.753906 43.019531 27.480469 43.019531 C 27.207031 43.019531 26.9375 42.996094 26.671875 42.941406 C 26.402344 42.886719 26.140625 42.808594 25.890625 42.703125 C 25.636719 42.601562 25.398438 42.472656 25.171875 42.320312 C 24.945312 42.167969 24.734375 41.996094 24.539062 41.804688 C 24.347656 41.609375 24.175781 41.398438 24.023438 41.171875 C 23.871094 40.945312 23.742188 40.707031 23.636719 40.453125 C 23.535156 40.203125 23.453125 39.941406 23.402344 39.675781 C 23.347656 39.40625 23.320312 39.136719 23.320312 38.863281 C 23.320312 38.589844 23.347656 38.320312 23.402344 38.050781 C 23.453125 37.785156 23.535156 37.523438 23.636719 37.269531 C 23.742188 37.019531 23.871094 36.78125 24.023438 36.550781 C 24.175781 36.324219 24.347656 36.117188 24.539062 35.921875 C 24.941406 35.523438 25.390625 35.21875 25.902344 35.015625 L 25.902344 20.117188 C 25.40625 19.914062 24.941406 19.613281 24.539062 19.210938 C 24.25 18.917969 24.007812 18.589844 23.8125 18.226562 C 23.617188 17.863281 23.480469 17.476562 23.402344 17.074219 C 23.320312 16.667969 23.300781 16.261719 23.34375 15.851562 C 23.386719 15.441406 23.484375 15.042969 23.644531 14.664062 L 17.492188 8.511719 L 1.246094 24.738281 C 0.917969 25.066406 0.664062 25.445312 0.488281 25.875 C 0.308594 26.300781 0.222656 26.746094 0.222656 27.210938 C 0.222656 27.675781 0.308594 28.121094 0.488281 28.550781 C 0.664062 28.976562 0.917969 29.355469 1.246094 29.683594 L 24.9375 53.371094 C 25.265625 53.699219 25.644531 53.953125 26.070312 54.128906 C 26.5 54.304688 26.945312 54.394531 27.410156 54.394531 C 27.871094 54.394531 28.316406 54.304688 28.746094 54.128906 C 29.171875 53.953125 29.550781 53.699219 29.878906 53.371094 L 53.460938 29.828125 C 53.789062 29.5 54.042969 29.121094 54.21875 28.691406 C 54.394531 28.265625 54.484375 27.820312 54.484375 27.355469 C 54.484375 26.890625 54.394531 26.445312 54.21875 26.019531 C 54.042969 25.589844 53.789062 25.210938 53.460938 24.882812 " fill-opacity="1" fill-rule="nonzero"/></g></svg>