<svg xmlns="http://www.w3.org/2000/svg" xmlns:xlink="http://www.w3.org/1999/xlink" width="77" zoomAndPan="magnify" viewBox="0 0 57.75 53.25" height="71" preserveAspectRatio="xMidYMid meet" version="1.0"><defs><clipPath id="3f1224599a"><path d="M 0.667969 1 L 56.875 1 L 56.875 51 L 0.667969 51 Z M 0.667969 1 " clip-rule="nonzero"/></clipPath></defs><path fill="#00d8ff" d="M 28.757812 21.027344 C 25.984375 21.027344 23.734375 23.277344 23.734375 26.050781 C 23.734375 28.828125 25.984375 31.078125 28.757812 31.078125 C 31.535156 31.078125 33.785156 28.828125 33.785156 26.050781 C 33.785156 23.277344 31.535156 21.027344 28.757812 21.027344 Z M 28.757812 21.027344 " fill-opacity="1" fill-rule="nonzero"/><g clip-path="url(#3f1224599a)"><path fill="#00d8ff" d="M 11.234375 34.953125 C 11.726562 35.117188 12.222656 35.28125 12.726562 35.425781 C 12.5625 36.082031 12.421875 36.730469 12.289062 37.402344 C 11.136719 43.492188 12.035156 48.320312 14.910156 49.976562 C 17.875 51.6875 22.855469 49.933594 27.707031 45.6875 C 28.089844 45.347656 28.472656 44.996094 28.859375 44.621094 C 29.339844 45.09375 29.84375 45.542969 30.347656 45.980469 C 35.042969 50.019531 39.6875 51.652344 42.550781 50 C 45.515625 48.289062 46.480469 43.097656 45.230469 36.777344 C 45.132812 36.292969 45.023438 35.800781 44.902344 35.292969 C 45.25 35.195312 45.589844 35.085938 45.933594 34.976562 C 52.265625 32.882812 56.851562 29.488281 56.851562 26.011719 C 56.851562 22.6875 52.527344 19.460938 46.558594 17.40625 C 45.964844 17.207031 45.375 17.019531 44.78125 16.84375 C 44.878906 16.441406 44.96875 16.03125 45.054688 15.628906 C 46.40625 9.085938 45.515625 3.832031 42.519531 2.097656 C 39.632812 0.441406 34.925781 2.164062 30.164062 6.3125 C 29.691406 6.71875 29.230469 7.144531 28.792969 7.574219 C 28.496094 7.289062 28.1875 7.003906 27.882812 6.730469 C 22.886719 2.296875 17.886719 0.429688 14.886719 2.175781 C 12.011719 3.84375 11.15625 8.792969 12.363281 14.980469 C 12.488281 15.59375 12.617188 16.195312 12.769531 16.8125 C 12.066406 17.007812 11.375 17.230469 10.726562 17.460938 C 4.867188 19.492188 0.667969 22.695312 0.667969 26.011719 C 0.667969 29.433594 5.144531 32.867188 11.234375 34.953125 Z M 26.160156 43.894531 C 24.347656 45.550781 22.25 46.867188 19.96875 47.769531 C 18.75 48.347656 17.347656 48.40625 16.09375 47.910156 C 14.351562 46.902344 13.625 43.027344 14.613281 37.8125 C 14.734375 37.199219 14.863281 36.585938 15.015625 35.980469 C 17.476562 36.507812 19.953125 36.871094 22.46875 37.054688 C 23.917969 39.109375 25.507812 41.074219 27.210938 42.914062 C 26.859375 43.253906 26.507812 43.585938 26.15625 43.890625 Z M 40.09375 23.289062 C 39.578125 22.320312 39.050781 21.355469 38.503906 20.414062 C 37.964844 19.480469 37.40625 18.558594 36.824219 17.648438 C 38.589844 17.867188 40.28125 18.164062 41.863281 18.527344 C 41.355469 20.152344 40.765625 21.730469 40.09375 23.289062 Z M 40.117188 28.75 C 40.816406 30.34375 41.433594 31.957031 41.96875 33.613281 C 40.269531 33.996094 38.546875 34.296875 36.8125 34.492188 C 37.40625 33.570312 37.964844 32.625 38.515625 31.683594 C 39.074219 30.714844 39.601562 29.738281 40.117188 28.75 Z M 38.847656 26.023438 C 38.113281 27.535156 37.320312 29.027344 36.476562 30.496094 C 35.644531 31.957031 34.753906 33.371094 33.824219 34.777344 C 32.1875 34.898438 30.488281 34.953125 28.765625 34.953125 C 27.039062 34.953125 25.375 34.898438 23.761719 34.796875 C 22.804688 33.40625 21.90625 31.976562 21.0625 30.519531 C 20.214844 29.0625 19.4375 27.578125 18.703125 26.0625 L 18.699219 26.0625 C 19.421875 24.550781 20.210938 23.066406 21.046875 21.609375 C 21.878906 20.152344 22.78125 18.734375 23.722656 17.339844 C 25.371094 17.21875 27.046875 17.152344 28.761719 17.152344 C 30.476562 17.152344 32.164062 17.21875 33.800781 17.339844 C 34.730469 18.726562 35.621094 20.140625 36.464844 21.589844 C 37.3125 23.035156 38.101562 24.519531 38.847656 26.023438 Z M 19 20.433594 C 18.464844 21.367188 17.9375 22.316406 17.441406 23.285156 C 16.75 21.652344 16.167969 20.050781 15.6875 18.503906 C 17.265625 18.152344 18.945312 17.867188 20.691406 17.644531 C 20.109375 18.554688 19.539062 19.488281 19 20.433594 Z M 17.445312 28.839844 C 17.949219 29.804688 18.464844 30.761719 19.011719 31.703125 C 19.574219 32.660156 20.144531 33.613281 20.746094 34.546875 C 19.035156 34.359375 17.335938 34.085938 15.65625 33.722656 C 16.136719 32.140625 16.742188 30.507812 17.445312 28.839844 Z M 28.847656 41.226562 C 27.730469 40.019531 26.609375 38.683594 25.523438 37.242188 C 26.578125 37.285156 27.664062 37.308594 28.761719 37.308594 C 29.890625 37.308594 31 37.285156 32.097656 37.230469 C 31.089844 38.625 30.003906 39.953125 28.847656 41.226562 Z M 43.191406 44.519531 C 43.089844 45.859375 42.433594 47.109375 41.378906 47.953125 C 39.636719 48.960938 35.914062 47.644531 31.898438 44.199219 C 31.4375 43.804688 30.976562 43.375 30.503906 42.9375 C 32.183594 41.085938 33.730469 39.121094 35.136719 37.058594 C 37.648438 36.847656 40.152344 36.464844 42.621094 35.90625 C 42.730469 36.355469 42.828125 36.804688 42.917969 37.246094 C 43.457031 39.617188 43.542969 42.082031 43.191406 44.519531 Z M 44.144531 19.105469 C 44.714844 19.269531 45.261719 19.445312 45.789062 19.621094 C 50.902344 21.378906 54.492188 23.988281 54.492188 25.988281 C 54.492188 28.136719 50.660156 30.914062 45.1875 32.722656 C 44.878906 32.824219 44.574219 32.921875 44.253906 33.011719 C 43.488281 30.617188 42.542969 28.28125 41.457031 26.007812 C 42.511719 23.769531 43.398438 21.464844 44.144531 19.105469 Z M 31.707031 8.089844 C 35.792969 4.535156 39.601562 3.144531 41.335938 4.140625 C 43.1875 5.207031 43.902344 9.503906 42.738281 15.15625 C 42.664062 15.527344 42.585938 15.890625 42.488281 16.253906 C 40.050781 15.707031 37.582031 15.3125 35.101562 15.089844 C 33.675781 13.046875 32.117188 11.09375 30.425781 9.261719 C 30.855469 8.855469 31.269531 8.472656 31.707031 8.089844 Z M 28.78125 10.941406 C 29.933594 12.191406 31.019531 13.507812 32.03125 14.867188 C 29.855469 14.769531 27.671875 14.769531 25.5 14.867188 C 26.574219 13.457031 27.683594 12.140625 28.78125 10.941406 Z M 16.050781 4.21875 C 17.898438 3.144531 21.988281 4.679688 26.300781 8.496094 C 26.574219 8.738281 26.847656 9.003906 27.132812 9.265625 C 25.433594 11.09375 23.863281 13.046875 22.425781 15.089844 C 19.949219 15.308594 17.488281 15.691406 15.050781 16.230469 C 14.910156 15.671875 14.789062 15.101562 14.667969 14.53125 C 13.636719 9.21875 14.316406 5.214844 16.050781 4.21875 Z M 11.5 19.6875 C 12.125 19.46875 12.761719 19.269531 13.398438 19.082031 C 14.144531 21.464844 15.042969 23.800781 16.085938 26.0625 C 15.03125 28.355469 14.121094 30.726562 13.363281 33.140625 C 12.902344 33.011719 12.453125 32.867188 12 32.710938 C 9.664062 31.976562 7.007812 30.8125 5.089844 29.289062 C 3.980469 28.523438 3.234375 27.335938 3.027344 26.007812 C 3.027344 24 6.492188 21.429688 11.5 19.6875 Z M 11.5 19.6875 " fill-opacity="1" fill-rule="nonzero"/></g></svg>