<svg xmlns="http://www.w3.org/2000/svg" xmlns:xlink="http://www.w3.org/1999/xlink" width="78" zoomAndPan="magnify" viewBox="0 0 58.5 54" height="72" preserveAspectRatio="xMidYMid meet" version="1.0"><defs><clipPath id="81a3e34d95"><path d="M 1 1 L 57.261719 1 L 57.261719 52.28125 L 1 52.28125 Z M 1 1 " clip-rule="nonzero"/></clipPath></defs><g clip-path="url(#81a3e34d95)"><path fill="#764abc" d="M 27.847656 1.074219 C 19.984375 1.074219 13.824219 10.210938 13.824219 21.871094 C 13.824219 27.148438 15.101562 31.886719 17.214844 35.511719 C 17.09375 35.917969 17.011719 36.335938 17.011719 36.777344 C 17.011719 39.242188 19.011719 41.242188 21.472656 41.242188 C 23.9375 41.242188 25.9375 39.242188 25.9375 36.777344 C 25.9375 34.316406 23.9375 32.316406 21.472656 32.316406 C 21.414062 32.316406 21.355469 32.332031 21.292969 32.335938 C 19.839844 29.535156 18.921875 25.859375 18.921875 21.871094 C 18.921875 13.363281 23.011719 6.175781 27.847656 6.175781 C 31.128906 6.175781 34.058594 9.480469 35.609375 14.257812 C 37.503906 14.5625 39.394531 15.082031 41.273438 15.726562 C 39.542969 7.15625 34.265625 1.074219 27.847656 1.074219 Z M 27.53125 17.652344 C 25.066406 17.652344 23.066406 19.648438 23.066406 22.113281 C 23.066406 24.578125 25.066406 26.578125 27.53125 26.578125 C 29.28125 26.578125 30.785156 25.558594 31.515625 24.089844 C 34.8125 24.238281 38.484375 25.195312 41.945312 27.070312 C 46.945312 29.777344 50.714844 33.933594 51.777344 37.925781 C 52.328125 39.972656 52.132812 41.773438 51.210938 43.269531 C 49.378906 46.246094 45.003906 47.441406 40.011719 46.808594 C 38.535156 48.316406 36.851562 49.703125 35.023438 50.953125 C 37.574219 51.699219 40.097656 52.085938 42.480469 52.085938 C 48.175781 52.085938 53.054688 50.007812 55.554688 45.945312 C 57.21875 43.238281 57.617188 40.011719 56.703125 36.609375 C 55.265625 31.234375 50.652344 25.988281 44.371094 22.585938 C 39.785156 20.101562 35.007812 18.941406 30.6875 18.960938 C 29.878906 18.148438 28.765625 17.652344 27.53125 17.652344 Z M 8.972656 25.917969 C 5.246094 29.003906 2.578125 32.765625 1.550781 36.609375 C 0.636719 40.011719 1.035156 43.238281 2.699219 45.9375 C 5.195312 50 10.074219 52.082031 15.773438 52.082031 C 20.089844 52.082031 24.875 50.898438 29.441406 48.417969 C 33.804688 46.058594 37.328125 42.800781 39.574219 39.238281 C 41.613281 38.824219 43.152344 37.027344 43.152344 34.867188 C 43.152344 32.402344 41.152344 30.402344 38.6875 30.402344 C 36.226562 30.402344 34.226562 32.402344 34.226562 34.867188 C 34.226562 35.695312 34.46875 36.46875 34.867188 37.136719 C 33.066406 39.726562 30.320312 42.148438 27.015625 43.9375 C 19.0625 48.242188 9.910156 47.9375 7.039062 43.261719 C 6.117188 41.765625 5.925781 39.972656 6.476562 37.925781 C 7.03125 35.84375 8.332031 33.71875 10.152344 31.777344 C 9.59375 29.929688 9.199219 27.96875 8.972656 25.917969 Z M 8.972656 25.917969 " fill-opacity="1" fill-rule="nonzero"/></g></svg>