<svg xmlns="http://www.w3.org/2000/svg" xmlns:xlink="http://www.w3.org/1999/xlink" width="67" zoomAndPan="magnify" viewBox="0 0 50.25 50.249998" height="67" preserveAspectRatio="xMidYMid meet" version="1.0"><defs><clipPath id="e273977094"><path d="M 0.421875 0.738281 L 49 0.738281 L 49 49.507812 L 0.421875 49.507812 Z M 0.421875 0.738281 " clip-rule="nonzero"/></clipPath></defs><g clip-path="url(#e273977094)"><path fill="#f7ca0f" d="M 44.4375 0.738281 L 4.824219 0.738281 C 2.394531 0.738281 0.421875 2.707031 0.421875 5.140625 L 0.421875 44.75 C 0.421875 47.183594 2.394531 49.152344 4.824219 49.152344 L 44.4375 49.152344 C 46.867188 49.152344 48.835938 47.183594 48.835938 44.75 L 48.835938 5.140625 C 48.835938 2.707031 46.867188 0.738281 44.4375 0.738281 Z M 24.628906 36.785156 C 24.628906 40.695312 22.230469 42.886719 18.25 42.886719 C 14.3125 42.886719 11.808594 40.585938 11.808594 36.867188 L 16.070312 36.867188 C 16.082031 38.246094 16.902344 39.117188 18.175781 39.117188 C 19.484375 39.117188 20.183594 38.296875 20.183594 36.746094 L 20.183594 24.941406 L 24.628906 24.941406 Z M 36.691406 42.886719 C 32.269531 42.886719 29.488281 40.804688 29.414062 37.4375 L 33.652344 37.4375 C 33.761719 38.710938 35.03125 39.519531 36.871094 39.519531 C 38.53125 39.519531 39.671875 38.722656 39.671875 37.570312 C 39.671875 36.601562 38.910156 36.078125 36.910156 35.683594 L 34.609375 35.222656 C 31.414062 34.617188 29.765625 32.875 29.765625 30.125 C 29.765625 26.710938 32.503906 24.46875 36.714844 24.46875 C 40.808594 24.46875 43.640625 26.683594 43.714844 29.917969 L 39.609375 29.917969 C 39.511719 28.683594 38.339844 27.824219 36.773438 27.824219 C 35.214844 27.824219 34.1875 28.5625 34.1875 29.722656 C 34.1875 30.683594 34.960938 31.238281 36.800781 31.601562 L 39.050781 32.039062 C 42.503906 32.703125 44.050781 34.265625 44.050781 37.039062 C 44.054688 40.683594 41.269531 42.886719 36.691406 42.886719 Z M 36.691406 42.886719 " fill-opacity="1" fill-rule="nonzero"/></g></svg>