<?xml version="1.0" standalone="no"?>
<!DOCTYPE svg PUBLIC "-//W3C//DTD SVG 20010904//EN"
 "http://www.w3.org/TR/2001/REC-SVG-20010904/DTD/svg10.dtd">
<svg version="1.0" xmlns="http://www.w3.org/2000/svg"
 width="512.000000pt" height="512.000000pt" viewBox="0 0 512.000000 512.000000"
 preserveAspectRatio="xMidYMid meet">

<g transform="translate(0.000000,512.000000) scale(0.100000,-0.100000)"
fill="#000000" stroke="none">
<path d="M2315 5109 c-597 -61 -1141 -318 -1563 -739 -1002 -1000 -1002 -2620
0 -3620 406 -405 901 -648 1493 -732 119 -17 512 -16 635 1 580 80 1089 330
1489 732 464 467 723 1061 748 1719 26 711 -242 1393 -749 1900 -393 394 -891
643 -1453 726 -122 18 -477 26 -600 13z m368 -1359 c164 -77 196 -272 64 -385
-57 -49 -123 -69 -211 -63 -146 10 -249 109 -249 240 -1 174 221 290 396 208z
m24 -792 c30 -11 64 -33 82 -54 l31 -35 0 -676 c0 -784 9 -717 -108 -775 -60
-30 -75 -33 -152 -33 -100 1 -167 26 -221 81 l-34 35 -3 678 -2 677 23 35 c60
90 238 121 384 67z"/>
</g>
</svg>
