<svg xmlns="http://www.w3.org/2000/svg" width="90" viewBox="0 0 67.5 49.5" height="66" version="1.0"><defs><clipPath id="a"><path d="M.766.375h65.343v48.266H.766Zm0 0"/></clipPath></defs><path fill="#fff" d="M33.531 42.402c13.207 0 21.75-6.215 21.75-6.215s-2.328 5.442-9.32 7.77l2.328 3.887c12.055-.39 17.094-8.438 17.094-8.438 0-17.867-7.856-32.347-7.856-32.347C49.672 1.066 42.203 1.23 42.203 1.23l-.902.778c9.27 2.887 13.203 7.77 13.203 7.77C48.832 6.612 42.074 4.34 33.53 4.34c-8.547 0-15.304 2.273-20.976 5.437 0 0 3.933-4.882 13.207-7.77l-.903-.777S17.387 1.066 9.531 7.06c0 0-7.851 14.48-7.851 32.347 0 0 5.035 8.047 17.09 8.438l2.332-3.887c-6.993-2.328-9.325-7.77-9.325-7.77s8.547 6.215 21.754 6.215Zm0 0"/><path fill="#fff" d="M49.066 28.422c0 .406-.035.812-.109 1.21-.074.403-.187.79-.332 1.169a6.736 6.736 0 0 1-.54 1.074 6.297 6.297 0 0 1-.726.941c-.27.29-.562.547-.882.774a5.49 5.49 0 0 1-2.098.926 5.302 5.302 0 0 1-1.137.12c-.383 0-.762-.038-1.137-.12a5.591 5.591 0 0 1-2.102-.926 5.91 5.91 0 0 1-.882-.774 6.272 6.272 0 0 1-1.262-2.015 6.621 6.621 0 0 1-.332-3.594c.075-.398.184-.789.332-1.164.145-.379.325-.734.54-1.074.21-.34.453-.653.722-.942.27-.289.566-.547.883-.773a5.68 5.68 0 0 1 2.102-.93 5.559 5.559 0 0 1 2.273 0 5.695 5.695 0 0 1 2.098.93 6.104 6.104 0 0 1 1.61 1.715c.21.34.39.695.538 1.074.145.375.258.766.332 1.164.074.402.11.805.11 1.215ZM29.645 28.422c0 .406-.036.812-.11 1.21-.074.403-.187.79-.332 1.169a6.272 6.272 0 0 1-1.262 2.016 5.938 5.938 0 0 1-1.89 1.347 5.49 5.49 0 0 1-1.094.352 5.302 5.302 0 0 1-1.137.12c-.383 0-.761-.038-1.136-.12a5.49 5.49 0 0 1-1.094-.352 5.872 5.872 0 0 1-1.008-.574 5.91 5.91 0 0 1-.883-.774 6.272 6.272 0 0 1-1.262-2.015 6.621 6.621 0 0 1-.332-3.594c.075-.398.184-.789.332-1.164.145-.379.325-.734.54-1.074.21-.34.453-.653.722-.942.27-.289.567-.547.883-.773.32-.227.656-.418 1.008-.574a5.768 5.768 0 0 1 1.094-.356 5.559 5.559 0 0 1 2.273 0 5.695 5.695 0 0 1 2.098.93 5.938 5.938 0 0 1 1.61 1.715c.21.34.39.695.538 1.074.145.375.258.766.332 1.164.074.402.11.805.11 1.215Zm0 0"/><g clip-path="url(#a)"><path fill="#1f212b" d="M48.29 48.617a.775.775 0 0 1-.665-.375l-2.332-3.883a.782.782 0 0 1-.063-.672.799.799 0 0 1 .485-.468c3.387-1.13 5.629-3.024 7.008-4.606-3.637 1.883-10.368 4.567-19.192 4.567-8.812 0-15.535-2.676-19.176-4.559 1.383 1.582 3.622 3.477 6.993 4.598a.782.782 0 0 1 .418 1.14l-2.328 3.883a.783.783 0 0 1-.692.375C6.418 48.223 1.234 40.164 1.02 39.82a.808.808 0 0 1-.118-.414c0-17.855 7.868-32.574 7.946-32.718a.765.765 0 0 1 .214-.247C17.044.351 24.556.45 24.876.453c.18.004.352.07.488.188l.903.777a.784.784 0 0 1 .257.746.785.785 0 0 1-.53.586c-3.411 1.063-6.079 2.398-8.079 3.648 4.941-1.902 10.098-2.835 15.617-2.835 5.508 0 10.657.93 15.594 2.828-2.004-1.25-4.668-2.586-8.059-3.641a.78.78 0 0 1-.273-1.332l.902-.777a.775.775 0 0 1 .489-.188C42.504.45 50.016.348 58 6.441a.803.803 0 0 1 .21.247c.08.144 7.95 14.863 7.95 32.718 0 .149-.043.29-.12.414-.216.344-5.4 8.403-17.724 8.797h-.027Zm-1.177-4.25 1.606 2.68c10.18-.504 15.078-6.746 15.883-7.879-.067-16.426-6.883-30.055-7.68-31.598-5.219-3.93-10.25-5.086-12.86-5.422 7.586 2.93 10.895 6.954 11.047 7.141.235.29.23.703-.011.988a.773.773 0 0 1-.973.176c-6.441-3.59-13.18-5.34-20.594-5.34-7.418 0-14.152 1.75-20.597 5.344a.779.779 0 0 1-.985-1.168c.153-.187 3.457-4.207 11.035-7.137-2.617.344-7.656 1.508-12.843 5.422-.801 1.543-7.618 15.188-7.684 31.594.805 1.133 5.703 7.375 15.883 7.879l1.61-2.68c-6.544-2.55-8.79-7.644-8.887-7.87a.78.78 0 0 1 .23-.915.774.774 0 0 1 .941-.02c.082.06 8.52 6.067 21.297 6.067 12.774 0 21.211-6.008 21.293-6.066a.774.774 0 0 1 .942.019c.273.219.367.59.23.914-.098.227-2.344 5.32-8.883 7.871Zm0 0"/></g><path fill="#1f212b" d="M43.242 35.414c-3.64 0-6.605-3.137-6.605-6.992 0-3.856 2.965-6.992 6.605-6.992 3.64 0 6.602 3.136 6.602 6.992 0 3.855-2.961 6.992-6.602 6.992Zm0-12.43c-2.785 0-5.05 2.438-5.05 5.438 0 2.996 2.265 5.437 5.05 5.437 2.781 0 5.047-2.441 5.047-5.437 0-3-2.266-5.438-5.047-5.438ZM23.82 35.414c-3.64 0-6.605-3.137-6.605-6.992 0-3.856 2.965-6.992 6.605-6.992 3.64 0 6.602 3.136 6.602 6.992 0 3.855-2.961 6.992-6.602 6.992Zm0-12.43c-2.785 0-5.05 2.438-5.05 5.438 0 2.996 2.265 5.437 5.05 5.437 2.785 0 5.051-2.441 5.051-5.437 0-3-2.266-5.438-5.05-5.438ZM52.563 13.094a.404.404 0 0 1-.188-.047 7.777 7.777 0 0 0-.438-.227l-.332-.168a.39.39 0 0 1-.164-.523.387.387 0 0 1 .524-.164l.316.16c.157.078.313.156.469.242a.386.386 0 0 1-.188.727ZM50.234 11.91a.365.365 0 0 1-.168-.039 39.77 39.77 0 0 0-3.843-1.555.387.387 0 0 1-.243-.492.394.394 0 0 1 .497-.242 39.992 39.992 0 0 1 3.921 1.586.388.388 0 0 1 .184.52.38.38 0 0 1-.348.222ZM14.496 13.094a.392.392 0 0 1-.34-.2.389.389 0 0 1 .153-.527C20.336 9.055 26.62 7.445 33.53 7.445c3.961 0 7.684.535 11.375 1.637a.39.39 0 0 1 .262.484.386.386 0 0 1-.484.258c-3.618-1.078-7.266-1.601-11.153-1.601-6.773 0-12.937 1.578-18.847 4.824a.393.393 0 0 1-.188.047Zm0 0"/></svg>