<svg xmlns="http://www.w3.org/2000/svg" width="72" viewBox="0 0 54 51" height="68" version="1.0"><defs><clipPath id="a"><path d="M1 1h51v49.629H1Zm0 0"/></clipPath></defs><g clip-path="url(#a)"><path fill="#fff" d="M23.883 1.832C12.535 3.09 3.285 12.25 1.914 23.582a25.183 25.183 0 0 0 .406 8.55 25.065 25.065 0 0 0 5.852 11.345 24.756 24.756 0 0 0 3.137 2.933 24.877 24.877 0 0 0 3.593 2.36c1.266.68 2.578 1.25 3.942 1.707 1.25.199 1.652-.575 1.652-1.25v-4.23c-6.933 1.503-8.41-3.352-8.41-3.352-1.149-2.907-2.777-3.684-2.777-3.684-2.278-1.55.175-1.5.175-1.5 2.504.18 3.832 2.578 3.832 2.578 2.176 3.805 5.856 2.68 7.282 2.078.222-1.629.886-2.73 1.578-3.355-5.567-.625-11.39-2.778-11.39-12.313 0-2.777.948-5.004 2.577-6.781-.25-.625-1.129-3.23.25-6.61 0 0 2.102-.675 6.883 2.555 4.172-1.12 8.34-1.12 12.512 0 4.785-3.23 6.883-2.554 6.883-2.554 1.375 3.379.5 5.984.25 6.609 1.629 1.77 2.578 4.004 2.578 6.781 0 9.559-5.856 11.664-11.438 12.29.903.773 1.727 2.3 1.727 4.628v6.86c0 .675.402 1.476 1.68 1.25a24.96 24.96 0 0 0 4.195-1.848c.668-.371 1.32-.774 1.953-1.203a25.366 25.366 0 0 0 5.09-4.61 24.536 24.536 0 0 0 2.61-3.766 25.15 25.15 0 0 0 1.038-2.046c.313-.7.594-1.41.844-2.133.25-.726.465-1.46.645-2.203.183-.742.328-1.496.44-2.25a24.877 24.877 0 0 0 .259-4.578 23.675 23.675 0 0 0-.184-2.29 25.015 25.015 0 0 0-.996-4.473c-.23-.73-.5-1.444-.797-2.151-.3-.703-.633-1.395-.996-2.067a23.8 23.8 0 0 0-1.176-1.968 24.236 24.236 0 0 0-1.355-1.856 24.38 24.38 0 0 0-1.516-1.723 24.967 24.967 0 0 0-5.402-4.234 25.085 25.085 0 0 0-4.156-1.937c-.72-.258-1.45-.48-2.192-.672a24.396 24.396 0 0 0-2.246-.473 24.782 24.782 0 0 0-4.574-.32c-.766.02-1.527.07-2.29.156Zm0 0"/></g></svg>