<?xml version="1.0" standalone="no"?>
<!DOCTYPE svg PUBLIC "-//W3C//DTD SVG 20010904//EN"
 "http://www.w3.org/TR/2001/REC-SVG-20010904/DTD/svg10.dtd">
<svg version="1.0" xmlns="http://www.w3.org/2000/svg"
 width="512.000000pt" height="512.000000pt" viewBox="0 0 512.000000 512.000000"
 preserveAspectRatio="xMidYMid meet">

<g transform="translate(0.000000,512.000000) scale(0.100000,-0.100000)"
fill="#000000" stroke="none">
<path  d="M647 4335 c-141 -39 -270 -146 -332 -276 -44 -95 -55 -153 -55 -305
l0 -124 2295 0 2295 0 0 143 c0 102 -5 159 -16 198 -52 177 -195 318 -369 364
-52 13 -279 15 -1915 14 -1505 -1 -1864 -3 -1903 -14z m2083 -320 c18 -21 16
-64 -4 -83 -15 -15 -61 -17 -439 -20 -232 -2 -436 0 -454 3 -59 11 -82 58 -46
97 15 17 43 18 473 18 395 0 459 -2 470 -15z m599 1 c21 -25 9 -79 -19 -93
-30 -15 -306 -18 -344 -3 -39 14 -53 53 -32 85 l16 25 184 0 c147 0 186 -3
195 -14z"/>
<path  d="M262 2348 l3 -1163 22 -60 c72 -189 239 -322 433 -346 55 -6 718 -9
1895 -7 l1810 3 65 22 c164 56 280 172 335 336 l25 76 0 1150 0 1151 -2295 0
-2295 0 2 -1162z m2926 786 c44 -30 17 -104 -38 -104 -92 0 -196 -68 -236
-154 -48 -104 -22 -244 59 -312 75 -63 196 -85 280 -49 50 21 114 80 139 129
23 45 34 139 21 174 -9 22 -10 22 -43 -20 -19 -24 -55 -81 -80 -128 -43 -80
-47 -85 -81 -88 -34 -3 -38 0 -78 62 -23 36 -71 92 -107 123 -68 62 -79 90
-47 125 32 36 67 23 148 -55 l75 -72 34 50 c58 87 115 143 205 203 143 96 220
114 241 57 14 -37 -7 -63 -77 -99 -102 -53 -96 -43 -77 -117 32 -125 0 -259
-86 -352 -187 -204 -514 -159 -636 88 -26 55 -29 69 -29 165 0 93 3 112 26
161 49 104 143 184 249 213 72 19 111 19 138 0z m-1211 -195 c31 -11 78 -53
96 -84 7 -11 14 -58 17 -105 l5 -85 120 -5 c140 -6 178 -21 242 -94 67 -76 68
-82 68 -621 0 -434 -2 -484 -17 -518 -30 -66 -76 -115 -136 -144 l-57 -28
-715 0 -715 0 -53 30 c-59 32 -91 66 -125 129 -22 41 -22 45 -22 541 0 489 0
501 21 546 26 55 77 108 130 135 30 15 65 20 157 22 l117 4 0 56 c0 111 32
176 102 211 41 20 57 21 390 21 221 0 357 -4 375 -11z m2435 -806 c24 -21 23
-58 -2 -83 -20 -20 -33 -20 -808 -20 -867 0 -832 -3 -832 60 0 64 -48 60 827
60 727 0 798 -1 815 -17z m-668 -384 c30 -23 33 -45 10 -77 l-15 -22 -469 0
c-515 0 -500 -2 -500 60 0 60 -2 60 496 60 441 0 452 0 478 -21z m338 -386
c24 -21 23 -58 -2 -83 -20 -20 -33 -20 -643 -20 -686 0 -667 -2 -667 60 0 63
-31 60 662 60 574 0 633 -2 650 -17z"/>
<path  d="M1254 2816 c-16 -12 -19 -27 -19 -83 l0 -68 368 -3 367 -2 0 68 c0
108 22 102 -366 102 -269 0 -334 -3 -350 -14z"/>
<path  d="M873 2519 c-17 -11 -41 -40 -53 -63 -18 -38 -20 -59 -18 -167 l3
-123 30 -8 c76 -21 389 -59 569 -70 291 -17 652 8 941 65 l60 12 0 137 c0 152
-6 169 -75 216 l-33 22 -696 0 c-684 0 -697 -1 -728 -21z m1059 -166 c22 -19
23 -52 4 -79 -14 -18 -31 -19 -321 -22 -342 -3 -355 -1 -355 58 0 60 1 60 342
60 276 0 314 -2 330 -17z"/>
<path  d="M800 1773 c0 -259 1 -270 23 -313 16 -33 34 -51 67 -67 l44 -23 671
0 c632 0 672 2 711 19 25 12 50 33 65 57 24 38 24 43 27 317 2 152 0 277 -5
277 -4 0 -57 -9 -118 -19 -60 -11 -138 -23 -172 -26 l-61 -7 -4 -120 c-3 -105
-5 -121 -22 -134 -27 -19 -60 -18 -79 4 -14 15 -17 40 -17 123 l0 104 -325 0
-325 0 0 -106 c0 -90 -3 -108 -18 -122 -25 -23 -58 -21 -82 3 -18 18 -20 33
-20 133 l0 112 -152 23 c-84 13 -165 25 -180 29 l-28 5 0 -269z"/>
</g>
</svg>
