<svg xmlns="http://www.w3.org/2000/svg" width="68" viewBox="0 0 50.88 51" height="68" version="1.0"><defs><clipPath id="a"><path d="M.203.438h50.133V50.57H.203Zm0 0"/></clipPath></defs><path fill="#fff" d="M25.305 34.879c-5.153 0-9.34-4.188-9.34-9.34 0-5.148 4.187-9.34 9.34-9.34 5.148 0 9.34 4.192 9.34 9.34 0 5.152-4.192 9.34-9.34 9.34Zm0-21.98c-6.973 0-12.645 5.671-12.645 12.64 0 6.973 5.672 12.645 12.645 12.645 6.968 0 12.64-5.672 12.64-12.645 0-6.969-5.672-12.64-12.64-12.64"/><g clip-path="url(#a)"><path fill="#fff" d="M44.582 10.816c0 .672-.55 1.22-1.223 1.22h-3.507a1.223 1.223 0 0 1-1.22-1.22V7.31c0-.672.552-1.22 1.22-1.22h3.507c.672 0 1.223.548 1.223 1.22ZM25.305 41.758c-8.942 0-16.22-7.274-16.22-16.219 0-8.941 7.278-16.215 16.22-16.215 8.941 0 16.215 7.274 16.215 16.215 0 8.945-7.274 16.219-16.215 16.219ZM41.953.438H8.656C3.996.438.203 4.23.203 8.89v33.297c0 4.66 3.793 8.453 8.453 8.453h33.297c4.66 0 8.453-3.793 8.453-8.453V8.89c0-4.66-3.793-8.454-8.453-8.454"/></g></svg>