<svg xmlns="http://www.w3.org/2000/svg" width="68" viewBox="0 0 50.88 51" height="68" version="1.0"><defs><clipPath id="a"><path d="M.387.438H50.52V50.57H.387Zm0 0"/></clipPath></defs><g clip-path="url(#a)"><path fill="#fff" d="M25.488.438C11.621.438.387 11.675.387 25.538c0 13.867 11.234 25.102 25.101 25.102 13.864 0 25.102-11.235 25.102-25.102C50.566 11.676 39.332.437 25.488.437Zm13.516 15.41-4.89 22.925a1.597 1.597 0 0 1-2.52.957l-11.606-8.648L32.813 19.5s.867-.719.628-.938c-.261-.257-1.218.305-1.695.633-.5.367-15.71 9.973-15.71 9.973l-7.716-2.39c-.87-.258-.87-1.454.39-1.977l28.34-10.91c1.24-.61 2.216.785 1.954 1.957Zm0 0"/></g></svg>